<?xml version="1.0" encoding="iso-8859-1"?>
<!-- Generator: Adobe Illustrator 22.1.0, SVG Export Plug-In . SVG Version: 6.00 Build 0)  -->
<svg xmlns="http://www.w3.org/2000/svg" xmlns:xlink="http://www.w3.org/1999/xlink" version="1.1" id="Layer_3" x="0px" y="0px" viewBox="0 0 64 64" style="enable-background:new 0 0 64 64;" xml:space="preserve" width="512" height="512">
<g>
	<g>
		<polyline style="fill:#FDDFB1;" points="34.1,58 27,62 31.11,55.011   "/>
	</g>
	<g>
		<path d="M27,63c-0.262,0-0.521-0.103-0.714-0.3c-0.316-0.322-0.377-0.817-0.148-1.207l4.11-6.989l1.725,1.014l-2.229,3.788    l3.864-2.177l0.982,1.742l-7.1,4C27.337,62.958,27.168,63,27,63z"/>
	</g>
	<g>
		<rect x="34" y="34" style="fill:#B19231;" width="16" height="16"/>
	</g>
	<g>
		<rect x="34" y="34" style="fill:#ECC341;" width="13" height="16"/>
	</g>
	<g>
		
			<rect x="27.858" y="42.932" transform="matrix(0.7071 -0.7071 0.7071 0.7071 -18.9464 44.3517)" style="fill:#CA743A;" width="32.411" height="4.228"/>
	</g>
	<g>
		<polyline style="fill:#B3B3B3;" points="54.028,32.092 59.011,27.11 62,30.1 57.018,35.082   "/>
	</g>
	<g>
		<rect x="2" y="2" style="fill:#B19231;" width="16" height="16"/>
	</g>
	<g>
		<rect x="2" y="2" style="fill:#ECC341;" width="13" height="16"/>
	</g>
	<g>
		<rect x="18" y="17" style="fill:#B19231;" width="16" height="16"/>
	</g>
	<g>
		<rect x="18" y="17" style="fill:#ECC341;" width="13" height="16"/>
	</g>
	<g>
		<rect x="2" y="34" style="fill:#B19231;" width="16" height="16"/>
	</g>
	<g>
		<rect x="2" y="34" style="fill:#ECC341;" width="13" height="16"/>
	</g>
	<g>
		<rect x="34" y="2" style="fill:#B19231;" width="16" height="16"/>
	</g>
	<g>
		<rect x="34" y="2" style="fill:#ECC341;" width="13" height="16"/>
	</g>
	<g>
		<rect x="18" y="2" style="fill:#008B4E;" width="16" height="16"/>
	</g>
	<g>
		<rect x="18" y="2" style="fill:#00B968;" width="13" height="16"/>
	</g>
	<g>
		<rect x="18" y="34" style="fill:#008B4E;" width="16" height="16"/>
	</g>
	<g>
		<rect x="18" y="34" style="fill:#00B968;" width="13" height="16"/>
	</g>
	<g>
		<rect x="2" y="18" style="fill:#008B4E;" width="16" height="16"/>
	</g>
	<g>
		<rect x="2" y="18" style="fill:#00B968;" width="13" height="16"/>
	</g>
	<g>
		<rect x="34" y="18" style="fill:#008B4E;" width="16" height="16"/>
	</g>
	<g>
		<rect x="34" y="18" style="fill:#00B968;" width="13" height="16"/>
	</g>
	<g>
		<rect x="17" y="2" width="2" height="48"/>
	</g>
	<g>
		<rect x="33" y="2" width="2" height="48"/>
	</g>
	<g>
		<path d="M36,51H2c-0.553,0-1-0.447-1-1V2c0-0.553,0.447-1,1-1h48c0.553,0,1,0.447,1,1v34h-2V3H3v46h33V51z"/>
	</g>
	<g>
		<path d="M50,51h-8v-2h7v-7h2v8C51,50.553,50.553,51,50,51z"/>
	</g>
	<g>
		<rect x="2" y="17" width="48" height="2"/>
	</g>
	<g>
		<rect x="2" y="33" width="48" height="2"/>
	</g>
	<g>
		<path d="M13,15H8c-0.553,0-1-0.447-1-1v-4c0-0.553,0.447-1,1-1h3V7H7V5h5c0.553,0,1,0.447,1,1v4c0,0.553-0.447,1-1,1H9v2h4V15z"/>
	</g>
	<g>
		<path d="M44,11h-5V9h4V7h-4V5h5c0.553,0,1,0.447,1,1v4C45,10.553,44.553,11,44,11z"/>
	</g>
	<g>
		<path d="M44,15h-5v-2h4v-2h-4V9h5c0.553,0,1,0.447,1,1v4C45,14.553,44.553,15,44,15z"/>
	</g>
	<g>
		<path d="M11,46H9v-5.586l-1.293,1.293l-1.414-1.414l3-3c0.286-0.287,0.716-0.373,1.09-0.217C10.757,37.23,11,37.596,11,38V46z"/>
	</g>
	<g>
		<rect x="7" y="45" width="6" height="2"/>
	</g>
	<g>
		<path d="M44,31h-5v-2h4v-2h-3c-0.553,0-1-0.447-1-1v-4c0-0.553,0.447-1,1-1h5v2h-4v2h3c0.553,0,1,0.447,1,1v4    C45,30.553,44.553,31,44,31z"/>
	</g>
	<g>
		<path d="M34.1,59c-0.256,0-0.512-0.098-0.707-0.293l-2.989-2.989c-0.391-0.391-0.391-1.023,0-1.414l22.918-22.918    c0.391-0.391,1.023-0.391,1.414,0l2.989,2.989c0.391,0.391,0.391,1.023,0,1.414L34.807,58.707C34.611,58.902,34.355,59,34.1,59z     M32.524,55.011l1.575,1.575l21.504-21.504l-1.575-1.575L32.524,55.011z"/>
	</g>
	<g>
		<path d="M57.725,35.789l-1.414-1.414l4.275-4.275l-1.575-1.575L54.735,32.8l-1.414-1.414l4.982-4.982    c0.391-0.391,1.023-0.391,1.414,0l2.989,2.989c0.391,0.391,0.391,1.023,0,1.414L57.725,35.789z"/>
	</g>
	<g>
		<rect x="35" y="61" width="19" height="2"/>
	</g>
	<g>
		<rect x="56" y="61" width="2" height="2"/>
	</g>
</g>
</svg>
